<?xml version="1.0" standalone="no"?>
<!DOCTYPE svg PUBLIC "-//W3C//DTD SVG 20010904//EN"
 "http://www.w3.org/TR/2001/REC-SVG-20010904/DTD/svg10.dtd">
<svg version="1.0" xmlns="http://www.w3.org/2000/svg"
 width="512.000000pt" height="512.000000pt" viewBox="0 0 512.000000 512.000000"
 preserveAspectRatio="xMidYMid meet">
<metadata>
Created by potrace 1.14, written by Peter Selinger 2001-2017
</metadata>
<g transform="translate(0.000000,512.000000) scale(0.100000,-0.100000)"
fill="#000000" stroke="none">
<path d="M1275 5101 c-88 -25 -161 -68 -229 -136 -109 -107 -155 -215 -160
-374 l-4 -95 -58 -64 c-276 -304 -462 -678 -525 -1057 -5 -33 -12 -71 -15 -85
-8 -44 -18 -221 -18 -345 l-1 -120 -62 -1 c-80 -1 -134 -25 -170 -76 -46 -68
-37 -166 21 -224 19 -20 84 -54 101 -54 24 0 23 4 41 -110 4 -24 13 -69 49
-260 8 -47 18 -98 21 -115 2 -16 9 -55 15 -85 6 -30 12 -64 13 -75 2 -11 10
-58 19 -105 9 -47 18 -96 21 -110 2 -14 20 -113 40 -220 19 -107 37 -208 40
-225 3 -16 10 -55 16 -85 6 -30 13 -71 16 -90 9 -59 50 -168 83 -218 81 -126
225 -216 376 -236 22 -3 243 -5 492 -6 l452 0 3 -203 c3 -203 3 -204 31 -245
15 -23 45 -51 67 -62 39 -20 54 -20 1405 -20 1351 0 1366 0 1405 20 22 11 52
39 67 62 l28 42 2 440 c1 243 2 453 2 467 1 22 7 27 51 37 130 30 209 133 205
267 -2 98 -53 177 -147 227 -41 22 -55 23 -291 26 -226 3 -247 5 -243 20 3 9
8 33 11 52 3 19 13 73 21 120 9 47 18 96 21 110 79 438 103 569 103 573 0 2
21 10 47 17 93 27 147 123 121 217 -11 42 -49 87 -91 110 -16 8 -59 15 -95 17
l-67 2 -1 94 c-2 133 -13 335 -18 351 -3 8 -7 33 -10 56 -3 22 -8 52 -10 65
-3 12 -8 34 -10 48 -26 158 -167 525 -237 615 -4 6 -2 24 6 40 7 17 23 50 34
75 10 25 38 86 61 135 68 146 87 210 89 305 5 218 -126 407 -334 481 -75 27
-225 34 -307 15 -122 -28 -233 -106 -303 -212 -27 -40 -40 -52 -49 -45 -22 18
-180 93 -270 128 -174 67 -368 114 -551 132 -90 9 -418 7 -465 -3 -14 -2 -41
-7 -60 -10 -71 -11 -148 -27 -246 -52 l-101 -26 -43 27 c-106 67 -282 91 -405
56z m1300 -345 c107 -14 183 -29 270 -53 130 -35 129 -35 140 -43 6 -4 28 -13
50 -20 22 -7 63 -24 90 -37 28 -14 68 -35 90 -46 71 -35 72 -26 -11 -207 -41
-91 -88 -192 -104 -225 -15 -33 -42 -91 -59 -128 -18 -37 -36 -65 -41 -62 -6
4 -10 11 -10 16 0 6 -28 52 -61 102 -76 114 -204 241 -287 285 -111 59 -163
72 -276 69 -88 -3 -111 -8 -178 -36 -42 -18 -78 -36 -80 -39 -2 -4 -18 -17
-35 -28 -18 -11 -55 -41 -82 -67 l-48 -46 -1 218 c0 120 -3 236 -7 258 -7 46
-19 39 120 67 43 9 113 19 155 22 41 4 76 7 77 8 6 5 242 -2 288 -8z m-1692
-1038 c-1 -100 -2 -185 -2 -188 -1 -3 -22 -12 -48 -18 -26 -7 -69 -24 -96 -38
-27 -13 -50 -24 -53 -24 -8 0 11 69 43 160 39 109 144 315 152 301 3 -5 5 -92
4 -193z m3176 -167 c17 -52 30 -96 27 -98 -3 -3 -94 36 -125 54 -2 1 12 34 29
73 18 38 34 69 35 68 2 -2 17 -45 34 -97z"/>
</g>
</svg>
